<svg width="52" height="52" viewBox="0 0 52 52" fill="none" xmlns="http://www.w3.org/2000/svg">
<g clip-path="url(#clip0)" filter="url(#filter0_d)">
<circle cx="26" cy="25" r="24" transform="rotate(0.680205 26 25)" fill="#FCFCFC"/>
<path d="M45.8947 18.277C49.6077 29.2645 43.7105 41.1817 32.7229 44.8947C32.7229 44.8947 36.3445 33.7465 32.6315 22.7589C28.9185 11.7714 19.277 5.10516 19.277 5.10516C30.2646 1.39217 42.1817 7.2894 45.8947 18.277Z" fill="#5850EC"/>
<path d="M45.8136 31.9587C41.9704 42.9014 29.9841 48.6567 19.0413 44.8136C19.0413 44.8136 28.7614 38.2623 32.6045 27.3196C36.4477 16.3769 32.9587 5.18646 32.9587 5.18646C43.9014 9.02963 49.6567 21.016 45.8136 31.9587Z" fill="#3F51B5"/>
</g>
<defs>
<filter id="filter0_d" x="0" y="0" width="52" height="52" filterUnits="userSpaceOnUse" color-interpolation-filters="sRGB">
<feFlood flood-opacity="0" result="BackgroundImageFix"/>
<feColorMatrix in="SourceAlpha" type="matrix" values="0 0 0 0 0 0 0 0 0 0 0 0 0 0 0 0 0 0 127 0"/>
<feOffset dy="1"/>
<feGaussianBlur stdDeviation="0.5"/>
<feColorMatrix type="matrix" values="0 0 0 0 0 0 0 0 0 0 0 0 0 0 0 0 0 0 0.25 0"/>
<feBlend mode="normal" in2="BackgroundImageFix" result="effect1_dropShadow"/>
<feBlend mode="normal" in="SourceGraphic" in2="effect1_dropShadow" result="shape"/>
</filter>
<clipPath id="clip0">
<rect width="50" height="50" fill="white" transform="translate(1)"/>
</clipPath>
</defs>
</svg>
